<?xml version="1.0" encoding="UTF-8" standalone="no"?>
<!DOCTYPE svg PUBLIC "-//W3C//DTD SVG 1.1//EN"
 "http://www.w3.org/Graphics/SVG/1.1/DTD/svg11.dtd">
<!-- Generated by graphviz version 14.1.3 (20260303.0454)
 -->
<!-- Title: Guardrail Pages: 1 -->
<svg width="817pt" height="891pt"
 viewBox="2.00 2.00 815.00 889.00" xmlns="http://www.w3.org/2000/svg" xmlns:xlink="http://www.w3.org/1999/xlink">
<g id="graph0" class="graph" transform="scale(1 1) rotate(0) translate(16.56 874.52)">
<title>Guardrail</title>
<polygon fill="#f8f9fb" stroke="none" points="-14.4,14.4 -14.4,-872.36 798.04,-872.36 798.04,14.4 -14.4,14.4"/>
<!-- q -->
<g id="node1" class="node">
<title>q</title>
<path fill="#f0edff" stroke="#c4b5fd" stroke-width="1.25" d="M329.97,-857.96C329.97,-857.96 151.91,-857.96 151.91,-857.96 145.91,-857.96 139.91,-851.96 139.91,-845.96 139.91,-845.96 139.91,-833.96 139.91,-833.96 139.91,-827.96 145.91,-821.96 151.91,-821.96 151.91,-821.96 329.97,-821.96 329.97,-821.96 335.97,-821.96 341.97,-827.96 341.97,-833.96 341.97,-833.96 341.97,-845.96 341.97,-845.96 341.97,-851.96 335.97,-857.96 329.97,-857.96"/>
<text xml:space="preserve" text-anchor="middle" x="240.94" y="-835.76" font-family="Arial" font-size="14.00" fill="#27223f">Kỹ sư đặt câu hỏi tra cứu</text>
</g>
<!-- hybrid -->
<g id="node2" class="node">
<title>hybrid</title>
<path fill="#f0edff" stroke="#c4b5fd" stroke-width="1.25" d="M294.57,-784.96C294.57,-784.96 187.31,-784.96 187.31,-784.96 181.31,-784.96 175.31,-778.96 175.31,-772.96 175.31,-772.96 175.31,-744.64 175.31,-744.64 175.31,-738.64 181.31,-732.64 187.31,-732.64 187.31,-732.64 294.57,-732.64 294.57,-732.64 300.57,-732.64 306.57,-738.64 306.57,-744.64 306.57,-744.64 306.57,-772.96 306.57,-772.96 306.57,-778.96 300.57,-784.96 294.57,-784.96"/>
<text xml:space="preserve" text-anchor="middle" x="240.94" y="-763" font-family="Arial" font-size="14.00" fill="#27223f">Hybrid Retrieval</text>
<text xml:space="preserve" text-anchor="middle" x="240.94" y="-746.2" font-family="Arial" font-size="14.00" fill="#27223f">Qdrant + BM25</text>
</g>
<!-- q&#45;&gt;hybrid -->
<g id="edge1" class="edge">
<title>q&#45;&gt;hybrid</title>
<path fill="none" stroke="#6b7280" stroke-width="1.2" d="M240.94,-821.39C240.94,-813.38 240.94,-803.61 240.94,-794.23"/>
<polygon fill="#6b7280" stroke="#6b7280" stroke-width="1.2" points="243.39,-794.25 240.94,-787.25 238.49,-794.25 243.39,-794.25"/>
</g>
<!-- topk -->
<g id="node3" class="node">
<title>topk</title>
<path fill="#f0edff" stroke="#c4b5fd" stroke-width="1.25" d="M373.55,-695.64C373.55,-695.64 108.33,-695.64 108.33,-695.64 102.33,-695.64 96.33,-689.64 96.33,-683.64 96.33,-683.64 96.33,-671.64 96.33,-671.64 96.33,-665.64 102.33,-659.64 108.33,-659.64 108.33,-659.64 373.55,-659.64 373.55,-659.64 379.55,-659.64 385.55,-665.64 385.55,-671.64 385.55,-671.64 385.55,-683.64 385.55,-683.64 385.55,-689.64 379.55,-695.64 373.55,-695.64"/>
<text xml:space="preserve" text-anchor="middle" x="240.94" y="-673.44" font-family="Arial" font-size="14.00" fill="#27223f">Lấy Top&#45;K chunks có điểm số cao nhất</text>
</g>
<!-- hybrid&#45;&gt;topk -->
<g id="edge2" class="edge">
<title>hybrid&#45;&gt;topk</title>
<path fill="none" stroke="#6b7280" stroke-width="1.2" d="M240.94,-732.32C240.94,-723.46 240.94,-713.52 240.94,-704.63"/>
<polygon fill="#6b7280" stroke="#6b7280" stroke-width="1.2" points="243.39,-704.64 240.94,-697.64 238.49,-704.64 243.39,-704.64"/>
</g>
<!-- score -->
<g id="node4" class="node">
<title>score</title>
<path fill="#f0edff" stroke="#c4b5fd" stroke-width="1.25" d="M229.41,-619.33C229.41,-619.33 11.53,-556.83 11.53,-556.83 5.77,-555.17 5.77,-551.87 11.53,-550.21 11.53,-550.21 229.41,-487.71 229.41,-487.71 235.17,-486.05 246.71,-486.05 252.48,-487.71 252.48,-487.71 470.35,-550.21 470.35,-550.21 476.12,-551.87 476.12,-555.17 470.35,-556.83 470.35,-556.83 252.48,-619.33 252.48,-619.33 246.71,-620.99 235.17,-620.99 229.41,-619.33"/>
<text xml:space="preserve" text-anchor="middle" x="240.94" y="-566.12" font-family="Arial" font-size="14.00" fill="#27223f">LỚP 1 · KIỂM TRA ĐỘ TIN CẬY</text>
<text xml:space="preserve" text-anchor="middle" x="240.94" y="-549.32" font-family="Arial" font-size="14.00" fill="#27223f">Score &lt; 0.60</text>
<text xml:space="preserve" text-anchor="middle" x="240.94" y="-532.52" font-family="Arial" font-size="14.00" fill="#27223f">(hoặc &lt; 0.25 khi hỏi tóm tắt)?</text>
</g>
<!-- topk&#45;&gt;score -->
<g id="edge3" class="edge">
<title>topk&#45;&gt;score</title>
<path fill="none" stroke="#6b7280" stroke-width="1.2" d="M240.94,-659.14C240.94,-651.52 240.94,-642 240.94,-631.83"/>
<polygon fill="#6b7280" stroke="#6b7280" stroke-width="1.2" points="243.39,-631.99 240.94,-624.99 238.49,-631.99 243.39,-631.99"/>
</g>
<!-- lock -->
<g id="node5" class="node">
<title>lock</title>
<path fill="#f7e8f0" stroke="#e879a7" stroke-width="1.25" d="M278.87,-400.64C278.87,-400.64 37.02,-400.64 37.02,-400.64 31.02,-400.64 25.02,-394.64 25.02,-388.64 25.02,-388.64 25.02,-343.52 25.02,-343.52 25.02,-337.52 31.02,-331.52 37.02,-331.52 37.02,-331.52 278.87,-331.52 278.87,-331.52 284.87,-331.52 290.87,-337.52 290.87,-343.52 290.87,-343.52 290.87,-388.64 290.87,-388.64 290.87,-394.64 284.87,-400.64 278.87,-400.64"/>
<text xml:space="preserve" text-anchor="middle" x="157.94" y="-378.68" font-family="Arial" font-size="14.00" fill="#27223f">KÍCH HOẠT KHÓA GUARDRAIL</text>
<text xml:space="preserve" text-anchor="middle" x="157.94" y="-361.88" font-family="Arial" font-size="14.00" fill="#27223f">Dữ liệu không đủ tin cậy để trả lời</text>
<text xml:space="preserve" text-anchor="middle" x="157.94" y="-345.08" font-family="Arial" font-size="14.00" fill="#27223f">Vui lòng kiểm tra bản vẽ gốc</text>
</g>
<!-- score&#45;&gt;lock -->
<g id="edge4" class="edge">
<title>score&#45;&gt;lock</title>
<path fill="none" stroke="#6b7280" stroke-width="1.2" d="M213.76,-491.8C201.66,-464.75 187.7,-433.57 176.77,-409.14"/>
<polygon fill="#6b7280" stroke="#6b7280" stroke-width="1.2" points="179.02,-408.18 173.93,-402.79 174.55,-410.18 179.02,-408.18"/>
<text xml:space="preserve" text-anchor="middle" x="267.34" y="-456.5" font-family="Arial" font-size="11.00" fill="#374151">ĐÚNG · không đủ dữ liệu</text>
</g>
<!-- numeric -->
<g id="node6" class="node">
<title>numeric</title>
<path fill="#f0edff" stroke="#c4b5fd" stroke-width="1.25" d="M535.47,-431.69C535.47,-431.69 332.21,-369.59 332.21,-369.59 326.48,-367.83 326.48,-364.33 332.21,-362.57 332.21,-362.57 535.47,-300.47 535.47,-300.47 541.2,-298.71 552.68,-298.71 558.42,-300.47 558.42,-300.47 761.67,-362.57 761.67,-362.57 767.41,-364.33 767.41,-367.83 761.67,-369.59 761.67,-369.59 558.42,-431.69 558.42,-431.69 552.68,-433.45 541.2,-433.45 535.47,-431.69"/>
<text xml:space="preserve" text-anchor="middle" x="546.94" y="-378.68" font-family="Arial" font-size="14.00" fill="#27223f">LỚP 2 · KIỂM TRA SỐ LIỆU</text>
<text xml:space="preserve" text-anchor="middle" x="546.94" y="-361.88" font-family="Arial" font-size="14.00" fill="#27223f">Có thông số điện áp, áp suất,</text>
<text xml:space="preserve" text-anchor="middle" x="546.94" y="-345.08" font-family="Arial" font-size="14.00" fill="#27223f">dung sai...?</text>
</g>
<!-- score&#45;&gt;numeric -->
<g id="edge5" class="edge">
<title>score&#45;&gt;numeric</title>
<path fill="none" stroke="#6b7280" stroke-width="1.2" d="M317.76,-505.97C362.37,-478.93 418.58,-444.87 464.17,-417.24"/>
<polygon fill="#6b7280" stroke="#6b7280" stroke-width="1.2" points="465.41,-419.36 470.12,-413.63 462.87,-415.17 465.41,-419.36"/>
<text xml:space="preserve" text-anchor="middle" x="444.68" y="-456.5" font-family="Arial" font-size="11.00" fill="#374151">SAI · đủ tin cậy</text>
</g>
<!-- rule -->
<g id="node7" class="node">
<title>rule</title>
<path fill="#f0edff" stroke="#c4b5fd" stroke-width="1.25" d="M488.25,-247.76C488.25,-247.76 273.63,-247.76 273.63,-247.76 267.63,-247.76 261.63,-241.76 261.63,-235.76 261.63,-235.76 261.63,-190.64 261.63,-190.64 261.63,-184.64 267.63,-178.64 273.63,-178.64 273.63,-178.64 488.25,-178.64 488.25,-178.64 494.25,-178.64 500.25,-184.64 500.25,-190.64 500.25,-190.64 500.25,-235.76 500.25,-235.76 500.25,-241.76 494.25,-247.76 488.25,-247.76"/>
<text xml:space="preserve" text-anchor="middle" x="380.94" y="-225.8" font-family="Arial" font-size="14.00" fill="#27223f">RULE&#45;BASED EXTRACTION</text>
<text xml:space="preserve" text-anchor="middle" x="380.94" y="-209" font-family="Arial" font-size="14.00" fill="#27223f">Trích xuất chính xác giá trị số</text>
<text xml:space="preserve" text-anchor="middle" x="380.94" y="-192.2" font-family="Arial" font-size="14.00" fill="#27223f">từ văn bản gốc</text>
</g>
<!-- numeric&#45;&gt;rule -->
<g id="edge6" class="edge">
<title>numeric&#45;&gt;rule</title>
<path fill="none" stroke="#6b7280" stroke-width="1.2" d="M490.74,-314C469.27,-294.48 445.12,-272.53 424.94,-254.19"/>
<polygon fill="#6b7280" stroke="#6b7280" stroke-width="1.2" points="426.71,-252.49 419.88,-249.59 423.41,-256.12 426.71,-252.49"/>
<text xml:space="preserve" text-anchor="middle" x="456.1" y="-269.06" font-family="Arial" font-size="11.00" fill="#374151">CÓ</text>
</g>
<!-- llm -->
<g id="node8" class="node">
<title>llm</title>
<path fill="#f0edff" stroke="#c4b5fd" stroke-width="1.25" d="M771.64,-247.76C771.64,-247.76 542.24,-247.76 542.24,-247.76 536.24,-247.76 530.24,-241.76 530.24,-235.76 530.24,-235.76 530.24,-190.64 530.24,-190.64 530.24,-184.64 536.24,-178.64 542.24,-178.64 542.24,-178.64 771.64,-178.64 771.64,-178.64 777.64,-178.64 783.64,-184.64 783.64,-190.64 783.64,-190.64 783.64,-235.76 783.64,-235.76 783.64,-241.76 777.64,-247.76 771.64,-247.76"/>
<text xml:space="preserve" text-anchor="middle" x="656.94" y="-225.8" font-family="Arial" font-size="14.00" fill="#27223f">GỬI CONTEXT SANG LLM LOCAL</text>
<text xml:space="preserve" text-anchor="middle" x="656.94" y="-209" font-family="Arial" font-size="14.00" fill="#27223f">Qwen / DeepSeek</text>
<text xml:space="preserve" text-anchor="middle" x="656.94" y="-192.2" font-family="Arial" font-size="14.00" fill="#27223f">Sinh câu trả lời phân tích</text>
</g>
<!-- numeric&#45;&gt;llm -->
<g id="edge7" class="edge">
<title>numeric&#45;&gt;llm</title>
<path fill="none" stroke="#6b7280" stroke-width="1.2" d="M587.9,-308.9C600.94,-291.01 615.11,-271.57 627.2,-254.99"/>
<polygon fill="#6b7280" stroke="#6b7280" stroke-width="1.2" points="629.03,-256.64 631.18,-249.54 625.07,-253.75 629.03,-256.64"/>
<text xml:space="preserve" text-anchor="middle" x="637.17" y="-269.06" font-family="Arial" font-size="11.00" fill="#374151">KHÔNG</text>
</g>
<!-- cite -->
<g id="node9" class="node">
<title>cite</title>
<path fill="#f0edff" stroke="#c4b5fd" stroke-width="1.25" d="M634.23,-141.64C634.23,-141.64 401.66,-141.64 401.66,-141.64 395.66,-141.64 389.66,-135.64 389.66,-129.64 389.66,-129.64 389.66,-101.32 389.66,-101.32 389.66,-95.32 395.66,-89.32 401.66,-89.32 401.66,-89.32 634.23,-89.32 634.23,-89.32 640.23,-89.32 646.23,-95.32 646.23,-101.32 646.23,-101.32 646.23,-129.64 646.23,-129.64 646.23,-135.64 640.23,-141.64 634.23,-141.64"/>
<text xml:space="preserve" text-anchor="middle" x="517.94" y="-119.68" font-family="Arial" font-size="14.00" fill="#27223f">LỚP 3 · SPATIAL CITATION</text>
<text xml:space="preserve" text-anchor="middle" x="517.94" y="-102.88" font-family="Arial" font-size="14.00" fill="#27223f">Trang X · BBox · snippet 300 ký tự</text>
</g>
<!-- rule&#45;&gt;cite -->
<g id="edge8" class="edge">
<title>rule&#45;&gt;cite</title>
<path fill="none" stroke="#6b7280" stroke-width="1.2" d="M429.63,-178.18C444.04,-168.12 459.73,-157.16 473.83,-147.3"/>
<polygon fill="#6b7280" stroke="#6b7280" stroke-width="1.2" points="475.22,-149.32 479.55,-143.3 472.41,-145.3 475.22,-149.32"/>
</g>
<!-- llm&#45;&gt;cite -->
<g id="edge9" class="edge">
<title>llm&#45;&gt;cite</title>
<path fill="none" stroke="#6b7280" stroke-width="1.2" d="M607.54,-178.18C592.79,-168.02 576.72,-156.95 562.31,-147.03"/>
<polygon fill="#6b7280" stroke="#6b7280" stroke-width="1.2" points="564.03,-145.24 556.88,-143.29 561.25,-149.28 564.03,-145.24"/>
</g>
<!-- answer -->
<g id="node10" class="node">
<title>answer</title>
<path fill="#ffffff" stroke="#c4b5fd" stroke-width="1.25" d="M616.33,-52.32C616.33,-52.32 419.56,-52.32 419.56,-52.32 413.56,-52.32 407.56,-46.32 407.56,-40.32 407.56,-40.32 407.56,-12 407.56,-12 407.56,-6 413.56,0 419.56,0 419.56,0 616.33,0 616.33,0 622.33,0 628.33,-6 628.33,-12 628.33,-12 628.33,-40.32 628.33,-40.32 628.33,-46.32 622.33,-52.32 616.33,-52.32"/>
<text xml:space="preserve" text-anchor="middle" x="517.94" y="-30.36" font-family="Arial" font-size="14.00" fill="#27223f">Trả về giao diện người dùng</text>
<text xml:space="preserve" text-anchor="middle" x="517.94" y="-13.56" font-family="Arial" font-size="14.00" fill="#27223f">Câu trả lời có bằng chứng</text>
</g>
<!-- cite&#45;&gt;answer -->
<g id="edge10" class="edge">
<title>cite&#45;&gt;answer</title>
<path fill="none" stroke="#6b7280" stroke-width="1.2" d="M517.94,-88.75C517.94,-80.14 517.94,-70.39 517.94,-61.24"/>
<polygon fill="#6b7280" stroke="#6b7280" stroke-width="1.2" points="520.39,-61.52 517.94,-54.52 515.49,-61.52 520.39,-61.52"/>
</g>
</g>
</svg>
